HIERARCHY
ROOT root
{
	OFFSET 0.000000 0.000000 0.000000
	CHANNELS 6 Xposition Yposition Zposition Zrotation Yrotation Xrotation
	JOINT lhip
	{
		OFFSET 0.058581 -0.082280 -0.017664
		CHANNELS 3 Zrotation Yrotation Xrotation
		JOINT lknee
		{
			OFFSET 0.043451 -0.386469 0.008037
			CHANNELS 3 Zrotation Yrotation Xrotation
			JOINT lankle
			{
				OFFSET -0.014790 -0.426874 -0.037428
				CHANNELS 3 Zrotation Yrotation Xrotation
				JOINT ltoe
				{
					OFFSET 0.041054 -0.060286 0.122042
					CHANNELS 3 Zrotation Yrotation Xrotation
					End Site
					{
						OFFSET 0.000000 0.000000 0.000000
					}
				}
			}
		}
	}
	JOINT rhip
	{
		OFFSET -0.060310 -0.090513 -0.013543
		CHANNELS 3 Zrotation Yrotation Xrotation
		JOINT rknee
		{
			OFFSET -0.043257 -0.383688 -0.004843
			CHANNELS 3 Zrotation Yrotation Xrotation
			JOINT rankle
			{
				OFFSET 0.019056 -0.420046 -0.034562
				CHANNELS 3 Zrotation Yrotation Xrotation
				JOINT rtoe
				{
					OFFSET -0.034840 -0.062106 0.130323
					CHANNELS 3 Zrotation Yrotation Xrotation
					End Site
					{
						OFFSET 0.000000 0.000000 0.000000
					}
				}
			}
		}
	}
	JOINT lowerback
	{
		OFFSET 0.004439 0.124404 -0.038385
		CHANNELS 3 Zrotation Yrotation Xrotation
		JOINT upperback
		{
			OFFSET 0.004488 0.137956 0.026820
			CHANNELS 3 Zrotation Yrotation Xrotation
			JOINT chest
			{
				OFFSET -0.002265 0.056032 0.002855
				CHANNELS 3 Zrotation Yrotation Xrotation
				JOINT lowerneck
				{
					OFFSET -0.013390 0.211636 -0.033468
					CHANNELS 3 Zrotation Yrotation Xrotation
					JOINT upperneck
					{
						OFFSET 0.010113 0.088937 0.050410
						CHANNELS 3 Zrotation Yrotation Xrotation
						End Site
						{
							OFFSET 0.000000 0.000000 0.000000
						}
					}
				}
				JOINT lclavicle
				{
					OFFSET 0.071702 0.114000 -0.018898
					CHANNELS 3 Zrotation Yrotation Xrotation
					JOINT lshoulder
					{
						OFFSET 0.122921 0.045205 -0.019046
						CHANNELS 3 Zrotation Yrotation Xrotation
						JOINT lelbow
						{
							OFFSET 0.255332 -0.015649 -0.022946
							CHANNELS 3 Zrotation Yrotation Xrotation
							JOINT lwrist
							{
								OFFSET 0.265709 0.012698 -0.007375
								CHANNELS 3 Zrotation Yrotation Xrotation
								End Site
								{
									OFFSET 0.000000 0.000000 0.000000
								}
							}
						}
					}
				}
				JOINT rclavicle
				{
					OFFSET -0.082954 0.112472 -0.023707
					CHANNELS 3 Zrotation Yrotation Xrotation
					JOINT rshoulder
					{
						OFFSET -0.113228 0.046853 -0.008472
						CHANNELS 3 Zrotation Yrotation Xrotation
						JOINT relbow
						{
							OFFSET -0.260127 -0.014369 -0.031269
							CHANNELS 3 Zrotation Yrotation Xrotation
							JOINT rwrist
							{
								OFFSET -0.269108 0.006794 -0.006027
								CHANNELS 3 Zrotation Yrotation Xrotation
								End Site
								{
									OFFSET 0.000000 0.000000 0.000000
								}
							}
						}
					}
				}
			}
		}
	}
}
MOTION
Frames: 16
Frame Time: 0.033333
-0.005048 -0.125081 0.945159 -174.079948 -0.444438 92.529968 11.175691 1.365724 -19.311602 -6.851923 -3.401664 23.675120 1.641079 3.221632 -11.334487 0.000000 -0.000000 0.000000 -13.573030 -9.672388 -15.310706 0.063771 -5.846385 20.759399 3.350167 -4.620803 -9.973733 0.000000 -0.000000 0.000000 1.729323 5.275906 16.053276 3.243847 -4.808190 5.966134 2.095243 -1.603213 -1.908110 3.069068 5.354472 17.411694 6.149316 0.733596 16.077795 -18.238031 -26.974495 7.322965 -76.947881 -28.279722 27.926679 -1.700992 -20.627131 15.943913 -1.013982 12.915512 -31.419458 17.852250 25.603400 9.281157 74.032583 31.718287 18.305480 -10.810645 8.645837 -17.404874 11.962654 3.679916 -51.339874 
-0.004875 -0.125338 0.944818 -174.017345 -0.447530 92.563470 11.162934 1.293067 -19.402808 -6.768316 -3.299185 23.723297 1.921016 3.126254 -11.399974 0.000000 -0.000000 0.000000 -13.539505 -9.275062 -15.205689 -0.005325 -5.147062 20.647682 3.233563 -4.562787 -10.608842 0.000000 -0.000000 0.000000 1.764031 5.145679 16.021949 3.237803 -4.820484 6.024759 2.047876 -1.578695 -1.740931 3.140110 5.320066 16.976963 6.024398 0.636753 16.423935 -18.108778 -27.058248 7.305580 -76.956203 -28.469598 27.860685 -1.649817 -20.542869 15.881467 -1.495968 12.550228 -31.637290 17.845031 25.564393 9.286701 73.899522 31.965068 18.399653 -10.690817 8.624317 -17.538693 11.904305 3.665725 -51.067152 
-0.004838 -0.125336 0.944838 -174.006197 -0.481732 92.579086 11.150980 1.285642 -19.405759 -6.801361 -3.247262 23.698074 1.893161 3.141432 -11.402394 0.000000 -0.000000 0.000000 -13.593387 -9.408514 -15.353133 0.053497 -5.356702 20.889929 3.134630 -4.627440 -10.405470 0.000000 -0.000000 0.000000 1.799783 5.097780 16.148243 3.228290 -4.894384 5.913827 2.023942 -1.574625 -1.740378 3.162425 5.305580 16.959067 5.978005 0.789720 16.628970 -18.138201 -27.161784 7.347138 -76.927647 -28.571677 27.781047 -1.640308 -20.255246 15.822911 -1.682061 12.242807 -32.087981 17.962295 25.546296 9.273004 73.783064 32.025478 18.319780 -10.712795 8.397176 -17.155234 12.495866 3.710050 -50.564055 
-0.004634 -0.125330 0.944939 -173.972034 -0.529590 92.589611 11.084673 1.286483 -19.426948 -6.749777 -3.261923 23.715437 1.816518 3.067921 -11.406283 0.000000 -0.000000 0.000000 -13.671258 -9.686345 -15.512136 0.132597 -5.999564 21.042282 3.140102 -4.786742 -10.110333 0.000000 -0.000000 0.000000 1.802556 5.137700 16.258738 3.261285 -4.914479 5.860023 2.083685 -1.628711 -1.806068 3.083714 5.343582 17.081515 6.069020 0.693413 16.687848 -18.266178 -27.391933 7.503255 -76.802769 -28.838662 27.690070 -1.561373 -19.726652 15.791399 -2.758286 11.005338 -32.447852 17.929751 25.545913 9.428385 73.511893 31.999058 18.046653 -10.652951 8.151460 -16.885152 13.267849 3.901002 -50.440237 
-0.004421 -0.125506 0.944723 -173.961209 -0.520452 92.664538 11.116247 1.196337 -19.484673 -6.703252 -3.192756 23.646149 1.836554 3.080154 -11.429820 0.000000 -0.000000 0.000000 -13.596799 -9.187056 -15.390767 -0.027089 -5.213520 20.826298 3.229651 -4.616770 -10.654777 0.000000 -0.000000 0.000000 1.779431 5.095731 16.121227 3.349432 -4.866002 6.016104 2.023458 -1.596164 -1.835758 3.200154 5.460461 17.009553 5.967570 0.497055 16.697472 -18.175107 -27.340110 7.503444 -76.727068 -29.065077 27.826060 -1.531317 -19.535944 16.176485 -3.914615 10.054034 -32.919348 17.966967 25.423957 9.386221 73.417645 31.995898 18.184687 -10.617906 7.958563 -16.671665 13.773355 4.078677 -50.606878 
-0.004452 -0.125644 0.944967 -173.927621 -0.525127 92.705842 11.089730 1.181356 -19.530589 -6.641014 -3.116847 23.648195 1.770754 2.968963 -11.410847 0.000000 -0.000000 0.000000 -13.633624 -9.285673 -15.494877 -0.041208 -5.613747 20.961449 3.130846 -4.586461 -10.470784 0.000000 -0.000000 0.000000 1.842378 5.046778 16.131856 3.383575 -4.835153 6.000724 2.007627 -1.598602 -1.835558 3.263496 5.537766 17.005120 5.749230 0.299345 16.685155 -18.120213 -27.177864 7.575573 -76.671282 -29.269510 27.780797 -1.163104 -19.379076 16.829054 -6.339131 8.104414 -33.933326 17.928755 25.275239 9.413613 73.386017 32.026836 18.166874 -10.705169 7.566174 -16.056815 14.673166 4.855983 -50.708885 
-0.004317 -0.125601 0.945068 -173.895813 -0.529779 92.707310 11.114466 1.153447 -19.528474 -6.631034 -3.123081 23.598681 1.682678 2.884106 -11.423443 0.000000 -0.000000 0.000000 -13.663366 -9.487972 -15.566096 0.048967 -6.244286 21.001367 3.213280 -4.705597 -10.139491 0.000000 -0.000000 0.000000 1.875119 5.027170 16.075533 3.374120 -4.843257 6.115916 2.025788 -1.530090 -1.873561 3.250598 5.672509 17.068144 5.817756 0.262348 16.728607 -17.890279 -27.131596 7.570280 -76.728827 -29.509815 27.609923 -0.662243 -19.105353 16.631372 -7.986982 7.310833 -34.272486 17.924556 25.238784 9.553263 73.162763 32.038658 17.794953 -10.732069 7.136263 -15.809696 15.471649 5.832557 -50.660705 
-0.004320 -0.125838 0.945057 -173.835650 -0.524469 92.798977 11.114625 1.148053 -19.615352 -6.586947 -3.058421 23.504288 1.751118 2.801677 -11.378213 0.000000 -0.000000 0.000000 -13.622467 -9.103755 -15.480522 -0.071071 -5.570470 20.779782 3.175539 -4.555791 -10.581903 0.000000 -0.000000 0.000000 1.814355 5.022070 15.946562 3.491741 -4.777769 6.172993 2.046584 -1.509890 -1.858793 3.329767 5.758728 17.020389 5.656813 0.151635 16.787862 -17.626412 -27.022388 7.504977 -76.758660 -29.809469 27.600002 -0.342443 -18.862665 17.122684 -9.346444 6.776373 -33.975267 17.946993 25.151278 9.627635 73.118230 32.234499 17.637418 -10.933088 6.293241 -16.047583 16.423142 6.260367 -50.037369 
-0.004469 -0.125970 0.945231 -173.839206 -0.516784 92.852858 11.098461 1.169226 -19.630417 -6.570855 -3.056574 23.448445 1.728924 2.804918 -11.364071 0.000000 -0.000000 0.000000 -13.579185 -9.075650 -15.592023 -0.135255 -5.615744 20.839787 3.197932 -4.456170 -10.600909 0.000000 -0.000000 0.000000 1.821766 5.090924 16.053084 3.557585 -4.699333 5.980819 2.100009 -1.493759 -1.907967 3.243000 5.781031 17.067667 5.644184 0.025288 16.795304 -17.433215 -27.122858 7.465449 -76.690037 -30.017057 27.670701 -0.503576 -18.567816 17.609793 -10.279811 6.141068 -33.998025 17.774483 25.166345 9.618419 73.176653 31.976906 17.438613 -11.059764 5.911827 -16.445221 17.469162 6.560441 -50.469195 
-0.004920 -0.125931 0.945525 -173.711295 -0.544048 92.814403 11.041909 1.119923 -19.579592 -6.529655 -3.078535 23.375129 1.588265 2.679945 -11.391278 0.000000 -0.000000 0.000000 -13.703102 -9.508906 -15.742269 -0.029317 -6.616532 21.113108 3.168086 -4.578674 -10.063848 0.000000 -0.000000 0.000000 1.908480 5.126542 16.190611 3.567684 -4.778419 5.922911 2.167111 -1.555602 -1.956837 3.143315 6.056314 17.181968 5.510519 0.021707 16.641224 -17.337859 -27.395147 7.508997 -76.493080 -30.268424 27.752404 -0.889639 -18.537409 17.573170 -11.859598 5.185635 -34.644524 17.851374 25.128618 9.733878 72.959992 31.932114 17.139268 -10.543114 5.708213 -17.041666 17.366313 7.168407 -51.720073 
-0.004813 -0.126068 0.945387 -173.616424 -0.482391 92.868707 11.189176 1.126868 -19.701399 -6.561216 -2.931606 23.408707 1.537944 2.440010 -11.383606 0.000000 -0.000000 0.000000 -13.641794 -9.438312 -15.689568 -0.046455 -6.674453 21.005900 3.265921 -4.513665 -10.099318 0.000000 -0.000000 0.000000 1.873158 5.189562 16.001108 3.733622 -4.811419 6.288616 2.193236 -1.573675 -2.064916 3.273202 6.320036 17.012717 5.323979 -0.302022 16.706014 -17.214893 -27.617660 7.604480 -76.657532 -30.598801 28.004040 -0.891444 -18.476048 18.103423 -13.317447 3.950148 -34.440687 17.935639 25.266930 9.908748 73.179870 31.985710 17.164681 -10.967086 5.507579 -17.616182 17.684875 7.869229 -52.837549 
-0.005046 -0.126137 0.945391 -173.567542 -0.485090 92.862189 11.174451 1.138198 -19.697500 -6.612622 -3.038313 23.380078 1.677653 2.449632 -11.343980 0.000000 -0.000000 0.000000 -13.641337 -9.558357 -15.702830 -0.042738 -6.697617 21.027837 3.217694 -4.616199 -10.030804 0.000000 -0.000000 0.000000 1.792930 5.197578 16.004501 3.812178 -4.909688 6.377090 2.280332 -1.521099 -2.042843 3.077383 6.357832 16.894379 5.391386 -0.244591 16.734026 -17.040314 -27.793689 7.353891 -77.255640 -30.696746 28.415935 -0.965078 -18.126300 18.385627 -12.859559 5.224778 -35.078855 18.176913 25.430576 10.122256 73.226978 32.088198 17.187372 -11.231649 5.320905 -17.673376 17.857590 7.779035 -52.807477 
-0.005409 -0.126004 0.945455 -173.559223 -0.483881 92.852847 11.086625 1.328126 -19.687930 -6.659114 -3.295169 23.397702 1.759133 2.546061 -11.345283 0.000000 -0.000000 0.000000 -13.630933 -9.715533 -15.673271 0.015885 -6.438626 20.983101 3.342700 -4.652825 -10.028127 0.000000 -0.000000 0.000000 1.850043 5.223228 16.175885 3.739540 -5.008204 6.132945 2.425230 -1.560509 -1.964213 2.579413 6.303852 17.097645 5.644927 0.226210 16.537726 -16.849419 -28.161422 7.147191 -77.858239 -30.375690 28.864773 -1.349665 -18.247418 18.810253 -9.517668 8.584647 -33.123959 17.930916 25.579288 9.937654 73.183531 31.650875 16.963051 -10.589743 6.385511 -17.828720 16.699634 7.176101 -53.570251 
-0.005801 -0.125921 0.945387 -173.608765 -0.505641 92.820208 11.013456 1.444239 -19.649296 -6.660183 -3.382964 23.398667 1.873124 2.536631 -11.387178 0.000000 -0.000000 0.000000 -13.677400 -9.812604 -15.667286 0.050357 -6.325944 20.977354 3.409767 -4.595625 -10.003041 0.000000 -0.000000 0.000000 1.856530 5.335356 16.226002 3.705092 -5.065291 6.177354 2.544604 -1.582695 -2.001888 2.260678 6.262324 17.273140 5.710121 0.574948 16.512826 -16.755449 -28.639668 7.005822 -78.240562 -30.095223 29.154223 -1.657300 -18.317457 18.969889 -7.701774 10.476958 -30.915495 17.825326 25.813410 9.833309 72.973604 31.391823 16.506958 -10.419450 6.938071 -18.474596 17.031875 6.613574 -53.074318 
-0.005773 -0.125945 0.945230 -173.710004 -0.453557 92.860391 11.076421 1.601802 -19.692042 -6.683903 -3.388981 23.434988 1.935888 2.520562 -11.396429 0.000000 -0.000000 0.000000 -13.593658 -9.789717 -15.743211 0.055502 -6.197983 20.935581 3.370907 -4.580707 -10.028418 0.000000 -0.000000 0.000000 1.837374 5.398145 16.303326 3.686433 -4.984933 6.021242 2.630326 -1.631897 -1.951414 2.179258 6.176793 17.324286 5.674954 0.771327 16.629615 -16.807050 -28.783613 6.950726 -78.577848 -30.020903 29.401506 -1.869523 -18.175508 18.992712 -6.280675 12.062824 -29.503147 17.727607 25.923762 9.697747 73.017901 31.492366 16.461332 -10.071416 6.841293 -18.930961 16.462879 6.370484 -53.656084 
-0.006050 -0.125951 0.945071 -173.690214 -0.467768 92.863585 11.046006 1.648662 -19.741313 -6.718676 -3.426127 23.493303 2.018694 2.490668 -11.364656 0.000000 -0.000000 0.000000 -13.619858 -9.870682 -15.778536 0.024420 -6.244853 21.000253 3.384585 -4.509244 -9.985542 0.000000 -0.000000 0.000000 1.923600 5.370901 16.386992 3.612282 -5.001462 5.966059 2.549218 -1.550851 -1.963988 2.102768 6.143058 17.435779 5.821213 0.877161 16.603792 -16.828235 -28.830163 6.928462 -78.736170 -29.977203 29.408514 -1.815855 -18.179236 19.030025 -5.521332 12.550360 -29.131827 17.727106 25.962970 9.665171 73.182575 31.700636 16.304244 -10.228785 6.429404 -19.129863 16.528419 6.346736 -53.485712 
